<?xml version="1.0" encoding="UTF-8" standalone="no"?>
<!-- Created with Inkscape (http://www.inkscape.org/) -->

<svg
   xmlns:dc="http://purl.org/dc/elements/1.1/"
   xmlns:cc="http://creativecommons.org/ns#"
   xmlns:rdf="http://www.w3.org/1999/02/22-rdf-syntax-ns#"
   xmlns:svg="http://www.w3.org/2000/svg"
   xmlns="http://www.w3.org/2000/svg"
   xmlns:sodipodi="http://sodipodi.sourceforge.net/DTD/sodipodi-0.dtd"
   xmlns:inkscape="http://www.inkscape.org/namespaces/inkscape"
   width="144.10599mm"
   height="138.16902mm"
   viewBox="0 0 144.10599 138.16902"
   version="1.1"
   id="svg4549"
   inkscape:version="0.92.3 (2405546, 2018-03-11)"
   sodipodi:docname="logo-star.svg">
  <defs
     id="defs4543" />
  <sodipodi:namedview
     id="base"
     pagecolor="#ffffff"
     bordercolor="#666666"
     borderopacity="1.0"
     inkscape:pageopacity="0.0"
     inkscape:pageshadow="2"
     inkscape:zoom="1.1894531"
     inkscape:cx="313.15667"
     inkscape:cy="160.32393"
     inkscape:document-units="mm"
     inkscape:current-layer="layer1"
     showgrid="false"
     fit-margin-top="0"
     fit-margin-left="0"
     fit-margin-right="0"
     fit-margin-bottom="0"
     inkscape:window-width="1920"
     inkscape:window-height="1017"
     inkscape:window-x="-8"
     inkscape:window-y="-8"
     inkscape:window-maximized="1" />
  <metadata
     id="metadata4546">
    <rdf:RDF>
      <cc:Work
         rdf:about="">
        <dc:format>image/svg+xml</dc:format>
        <dc:type
           rdf:resource="http://purl.org/dc/dcmitype/StillImage" />
        <dc:title></dc:title>
      </cc:Work>
    </rdf:RDF>
  </metadata>
  <g
     inkscape:label="Layer 1"
     inkscape:groupmode="layer"
     id="layer1"
     transform="translate(8.1193273,-21.733426)">
    <path
       sodipodi:type="star"
       style="opacity:0.98999999;fill:#ff89ff;fill-opacity:1;stroke:none;stroke-width:1.26499999;stroke-miterlimit:4;stroke-dasharray:none;stroke-opacity:1"
       id="path5094"
       sodipodi:sides="5"
       sodipodi:cx="64.285492"
       sodipodi:cy="97.915161"
       sodipodi:r1="76.965927"
       sodipodi:r2="21.732252"
       sodipodi:arg1="0.9330755"
       sodipodi:arg2="1.561394"
       inkscape:flatsided="false"
       inkscape:rounded="0"
       inkscape:randomized="0"
       d="M 110.10837,159.7538 64.489823,119.64645 19.633496,160.6045 43.680947,104.82483 -9.1338379,74.820661 51.346852,80.45428 63.561846,20.952636 76.893518,80.214074 137.25758,73.444205 85.01632,104.43617 Z"
       inkscape:transform-center-x="0.22361964"
       inkscape:transform-center-y="-7.1365942" />
    <path
       style="opacity:0.98999999;fill:#ffae2d;fill-opacity:1;stroke:none;stroke-width:8.03916073;stroke-miterlimit:4;stroke-dasharray:none;stroke-opacity:1"
       d="m 76.194464,604.34457 c 0,-0.55257 19.999727,-47.40546 44.443836,-104.11754 24.44411,-56.71207 44.14521,-103.59605 43.7802,-104.18662 -0.36499,-0.59058 -44.51404,-25.97194 -98.109004,-56.40302 -53.594961,-30.43107 -97.260522,-55.51453 -97.034578,-55.74099 0.225944,-0.22646 50.027703,4.23351 110.670575,9.91104 60.642867,5.67752 111.313447,9.91844 112.601267,9.42427 1.62041,-0.62182 9.29518,-34.84308 24.92123,-111.12179 12.41885,-60.6228 22.70415,-110.077453 22.85622,-109.899222 0.15207,0.17823 11.41684,49.884642 25.03282,110.458702 13.61597,60.57406 24.931,110.33074 25.14451,110.57039 0.21349,0.23968 50.60125,-5.21718 111.97278,-12.12633 61.37154,-6.90915 111.78645,-12.36023 112.03317,-12.11353 0.2467,0.24672 -42.66742,26.02983 -95.36473,57.29581 -52.69731,31.266 -96.22259,57.50954 -96.72286,58.31899 -0.50028,0.80944 19.93098,47.3904 45.40279,103.51321 25.47179,56.12282 46.1299,102.20354 45.90692,102.4016 -0.22299,0.19808 -38.5954,-33.21974 -85.27202,-74.26181 l -84.86658,-74.6219 -6.77218,6.44188 c -3.72468,3.54306 -37.41648,34.29793 -74.87067,68.3442 -37.45419,34.04625 -72.070938,65.73066 -76.92611,70.40982 -4.855173,4.67914 -8.827586,8.05543 -8.827586,7.50284 z"
       id="path5096"
       inkscape:connector-curvature="0"
       transform="scale(0.26458333)" />
    <path
       style="opacity:0.98999999;fill:#ffd42a;fill-opacity:1;stroke:none;stroke-width:2.12702799;stroke-miterlimit:4;stroke-dasharray:none;stroke-opacity:1"
       d="m 117.3774,149.68464 c -0.1505,-0.0248 -11.41577,-7.14907 -25.034031,-15.83187 C 78.725103,125.16995 67.35263,118.0287 67.071208,117.9833 c -0.281419,-0.0454 -8.908893,10.28858 -19.172156,22.96438 -10.263263,12.6758 -18.705561,22.98412 -18.760657,22.90738 -0.05508,-0.0767 1.568958,-6.53933 3.609024,-14.36127 8.407706,-32.2366 11.177546,-43.07572 11.052225,-43.25028 C 43.560326,105.91018 33.032491,101.77433 10.337625,93.097996 -1.9669182,88.393923 -11.978593,84.505155 -11.91054,84.4563 c 0.06805,-0.04887 13.4392395,-0.877082 29.713744,-1.840491 16.274508,-0.963416 29.734765,-1.86338 29.911676,-1.999936 0.176912,-0.136555 0.994862,-13.426205 1.817664,-29.532567 0.822804,-16.106362 1.573957,-29.443437 1.66923,-29.637944 0.09528,-0.194508 4.923345,11.770504 10.729049,26.588919 5.805704,14.818417 10.748561,27.303647 10.984135,27.744956 0.48384,0.906425 -0.310783,1.098227 37.390532,-9.025002 11.25958,-3.023328 20.51557,-5.436182 20.56889,-5.361918 0.0533,0.07427 -10.30661,8.671401 -23.02207,19.104733 l -23.118989,18.969692 1.746144,2.540878 c 0.960383,1.39748 7.702748,11.73534 14.983035,22.97303 7.28027,11.2377 13.90097,21.40344 14.71267,22.59054 0.81171,1.18709 1.35271,2.13815 1.20223,2.11345 z"
       id="path5098"
       inkscape:connector-curvature="0"
       inkscape:export-xdpi="25"
       inkscape:export-ydpi="25" />
  </g>
</svg>
